<svg width="88" height="88" viewBox="0 0 88 88" fill="none" xmlns="http://www.w3.org/2000/svg">
<g opacity="0.3">
<mask id="mask0_1_11" style="mask-type:alpha" maskUnits="userSpaceOnUse" x="0" y="0" width="8" height="8">
<path d="M3.90962 7.97735C6.06885 7.97735 7.81925 6.19152 7.81925 3.98865C7.81925 1.78577 6.06885 0 3.90962 0C1.7504 0 0 1.78577 0 3.98865C0 6.19152 1.7504 7.97735 3.90962 7.97735Z" fill="url(#paint0_linear_1_11)"/>
</mask>
<g mask="url(#mask0_1_11)">
<path d="M3.90962 7.97735C6.06885 7.97735 7.81925 6.19152 7.81925 3.98865C7.81925 1.78577 6.06885 0 3.90962 0C1.7504 0 0 1.78577 0 3.98865C0 6.19152 1.7504 7.97735 3.90962 7.97735Z" fill="url(#paint1_linear_1_11)"/>
</g>
<mask id="mask1_1_11" style="mask-type:alpha" maskUnits="userSpaceOnUse" x="19" y="0" width="9" height="8">
<path d="M23.7289 7.97735C25.8881 7.97735 27.6385 6.19152 27.6385 3.98865C27.6385 1.78577 25.8881 0 23.7289 0C21.5697 0 19.8193 1.78577 19.8193 3.98865C19.8193 6.19152 21.5697 7.97735 23.7289 7.97735Z" fill="url(#paint2_linear_1_11)"/>
</mask>
<g mask="url(#mask1_1_11)">
<path d="M23.7292 7.97735C25.8885 7.97735 27.6389 6.19152 27.6389 3.98865C27.6389 1.78577 25.8885 0 23.7292 0C21.57 0 19.8196 1.78577 19.8196 3.98865C19.8196 6.19152 21.57 7.97735 23.7292 7.97735Z" fill="url(#paint3_linear_1_11)"/>
</g>
<mask id="mask2_1_11" style="mask-type:alpha" maskUnits="userSpaceOnUse" x="39" y="0" width="9" height="8">
<path d="M43.5482 7.97735C45.7074 7.97735 47.4578 6.19152 47.4578 3.98865C47.4578 1.78577 45.7074 0 43.5482 0C41.389 0 39.6385 1.78577 39.6385 3.98865C39.6385 6.19152 41.389 7.97735 43.5482 7.97735Z" fill="url(#paint4_linear_1_11)"/>
</mask>
<g mask="url(#mask2_1_11)">
<path d="M43.5489 7.97735C45.7081 7.97735 47.4585 6.19152 47.4585 3.98865C47.4585 1.78577 45.7081 0 43.5489 0C41.3897 0 39.6393 1.78577 39.6393 3.98865C39.6393 6.19152 41.3897 7.97735 43.5489 7.97735Z" fill="url(#paint5_linear_1_11)"/>
</g>
<mask id="mask3_1_11" style="mask-type:alpha" maskUnits="userSpaceOnUse" x="59" y="0" width="9" height="8">
<path d="M63.3675 7.97735C65.5267 7.97735 67.2771 6.19152 67.2771 3.98865C67.2771 1.78577 65.5267 0 63.3675 0C61.2082 0 59.4578 1.78577 59.4578 3.98865C59.4578 6.19152 61.2082 7.97735 63.3675 7.97735Z" fill="url(#paint6_linear_1_11)"/>
</mask>
<g mask="url(#mask3_1_11)">
<path d="M63.3681 7.97735C65.5273 7.97735 67.2777 6.19152 67.2777 3.98865C67.2777 1.78577 65.5273 0 63.3681 0C61.2088 0 59.4584 1.78577 59.4584 3.98865C59.4584 6.19152 61.2088 7.97735 63.3681 7.97735Z" fill="url(#paint7_linear_1_11)"/>
</g>
<mask id="mask4_1_11" style="mask-type:alpha" maskUnits="userSpaceOnUse" x="79" y="0" width="9" height="8">
<path d="M83.1867 7.97735C85.346 7.97735 87.0964 6.19152 87.0964 3.98865C87.0964 1.78577 85.346 0 83.1867 0C81.0275 0 79.2771 1.78577 79.2771 3.98865C79.2771 6.19152 81.0275 7.97735 83.1867 7.97735Z" fill="url(#paint8_linear_1_11)"/>
</mask>
<g mask="url(#mask4_1_11)">
<path d="M83.1862 7.97735C85.3454 7.97735 87.0958 6.19152 87.0958 3.98865C87.0958 1.78577 85.3454 0 83.1862 0C81.0269 0 79.2766 1.78577 79.2766 3.98865C79.2766 6.19152 81.0269 7.97735 83.1862 7.97735Z" fill="url(#paint9_linear_1_11)"/>
</g>
<mask id="mask5_1_11" style="mask-type:alpha" maskUnits="userSpaceOnUse" x="0" y="20" width="8" height="9">
<path d="M3.90962 28.0037C6.06885 28.0037 7.81925 26.2179 7.81925 24.015C7.81925 21.8122 6.06885 20.0264 3.90962 20.0264C1.7504 20.0264 0 21.8122 0 24.015C0 26.2179 1.7504 28.0037 3.90962 28.0037Z" fill="url(#paint10_linear_1_11)"/>
</mask>
<g mask="url(#mask5_1_11)">
<path d="M3.90962 28.0037C6.06885 28.0037 7.81925 26.218 7.81925 24.0151C7.81925 21.8122 6.06885 20.0265 3.90962 20.0265C1.7504 20.0265 0 21.8122 0 24.0151C0 26.218 1.7504 28.0037 3.90962 28.0037Z" fill="url(#paint11_linear_1_11)"/>
</g>
<mask id="mask6_1_11" style="mask-type:alpha" maskUnits="userSpaceOnUse" x="19" y="20" width="9" height="9">
<path d="M23.7289 28.0038C25.8881 28.0038 27.6385 26.218 27.6385 24.0151C27.6385 21.8123 25.8881 20.0265 23.7289 20.0265C21.5697 20.0265 19.8193 21.8123 19.8193 24.0151C19.8193 26.218 21.5697 28.0038 23.7289 28.0038Z" fill="url(#paint12_linear_1_11)"/>
</mask>
<g mask="url(#mask6_1_11)">
<path d="M23.7292 28.0037C25.8885 28.0037 27.6389 26.2179 27.6389 24.0151C27.6389 21.8122 25.8885 20.0264 23.7292 20.0264C21.57 20.0264 19.8196 21.8122 19.8196 24.0151C19.8196 26.2179 21.57 28.0037 23.7292 28.0037Z" fill="url(#paint13_linear_1_11)"/>
</g>
<mask id="mask7_1_11" style="mask-type:alpha" maskUnits="userSpaceOnUse" x="39" y="20" width="9" height="9">
<path d="M43.5482 28.0038C45.7074 28.0038 47.4578 26.218 47.4578 24.0151C47.4578 21.8123 45.7074 20.0265 43.5482 20.0265C41.389 20.0265 39.6385 21.8123 39.6385 24.0151C39.6385 26.218 41.389 28.0038 43.5482 28.0038Z" fill="url(#paint14_linear_1_11)"/>
</mask>
<g mask="url(#mask7_1_11)">
<path d="M43.5489 28.0037C45.7081 28.0037 47.4585 26.2179 47.4585 24.0151C47.4585 21.8122 45.7081 20.0264 43.5489 20.0264C41.3897 20.0264 39.6393 21.8122 39.6393 24.0151C39.6393 26.2179 41.3897 28.0037 43.5489 28.0037Z" fill="url(#paint15_linear_1_11)"/>
</g>
<mask id="mask8_1_11" style="mask-type:alpha" maskUnits="userSpaceOnUse" x="59" y="20" width="9" height="9">
<path d="M63.3675 28.0038C65.5267 28.0038 67.2771 26.218 67.2771 24.0151C67.2771 21.8123 65.5267 20.0265 63.3675 20.0265C61.2082 20.0265 59.4578 21.8123 59.4578 24.0151C59.4578 26.218 61.2082 28.0038 63.3675 28.0038Z" fill="url(#paint16_linear_1_11)"/>
</mask>
<g mask="url(#mask8_1_11)">
<path d="M63.3681 28.0037C65.5273 28.0037 67.2777 26.2179 67.2777 24.0151C67.2777 21.8122 65.5273 20.0264 63.3681 20.0264C61.2088 20.0264 59.4584 21.8122 59.4584 24.0151C59.4584 26.2179 61.2088 28.0037 63.3681 28.0037Z" fill="url(#paint17_linear_1_11)"/>
</g>
<mask id="mask9_1_11" style="mask-type:alpha" maskUnits="userSpaceOnUse" x="79" y="20" width="9" height="9">
<path d="M83.1867 28.0038C85.346 28.0038 87.0964 26.218 87.0964 24.0151C87.0964 21.8123 85.346 20.0265 83.1867 20.0265C81.0275 20.0265 79.2771 21.8123 79.2771 24.0151C79.2771 26.218 81.0275 28.0038 83.1867 28.0038Z" fill="url(#paint18_linear_1_11)"/>
</mask>
<g mask="url(#mask9_1_11)">
<path d="M83.1862 28.0037C85.3454 28.0037 87.0958 26.2179 87.0958 24.0151C87.0958 21.8122 85.3454 20.0264 83.1862 20.0264C81.0269 20.0264 79.2766 21.8122 79.2766 24.0151C79.2766 26.2179 81.0269 28.0037 83.1862 28.0037Z" fill="url(#paint19_linear_1_11)"/>
</g>
<mask id="mask10_1_11" style="mask-type:alpha" maskUnits="userSpaceOnUse" x="0" y="40" width="8" height="8">
<path d="M3.90962 47.9887C6.06885 47.9887 7.81925 46.2029 7.81925 44C7.81925 41.7971 6.06885 40.0113 3.90962 40.0113C1.7504 40.0113 0 41.7971 0 44C0 46.2029 1.7504 47.9887 3.90962 47.9887Z" fill="url(#paint20_linear_1_11)"/>
</mask>
<g mask="url(#mask10_1_11)">
<path d="M3.90962 47.9888C6.06885 47.9888 7.81925 46.203 7.81925 44.0001C7.81925 41.7972 6.06885 40.0114 3.90962 40.0114C1.7504 40.0114 0 41.7972 0 44.0001C0 46.203 1.7504 47.9888 3.90962 47.9888Z" fill="url(#paint21_linear_1_11)"/>
</g>
<mask id="mask11_1_11" style="mask-type:alpha" maskUnits="userSpaceOnUse" x="19" y="40" width="9" height="8">
<path d="M23.7289 47.9889C25.8881 47.9889 27.6385 46.2032 27.6385 44.0003C27.6385 41.7974 25.8881 40.0116 23.7289 40.0116C21.5697 40.0116 19.8193 41.7974 19.8193 44.0003C19.8193 46.2032 21.5697 47.9889 23.7289 47.9889Z" fill="url(#paint22_linear_1_11)"/>
</mask>
<g mask="url(#mask11_1_11)">
<path d="M23.7292 47.9888C25.8885 47.9888 27.6389 46.203 27.6389 44.0001C27.6389 41.7972 25.8885 40.0114 23.7292 40.0114C21.57 40.0114 19.8196 41.7972 19.8196 44.0001C19.8196 46.203 21.57 47.9888 23.7292 47.9888Z" fill="url(#paint23_linear_1_11)"/>
</g>
<mask id="mask12_1_11" style="mask-type:alpha" maskUnits="userSpaceOnUse" x="39" y="40" width="9" height="8">
<path d="M43.5482 47.9889C45.7074 47.9889 47.4578 46.2032 47.4578 44.0003C47.4578 41.7974 45.7074 40.0116 43.5482 40.0116C41.389 40.0116 39.6385 41.7974 39.6385 44.0003C39.6385 46.2032 41.389 47.9889 43.5482 47.9889Z" fill="url(#paint24_linear_1_11)"/>
</mask>
<g mask="url(#mask12_1_11)">
<path d="M43.5489 47.9888C45.7081 47.9888 47.4585 46.203 47.4585 44.0001C47.4585 41.7972 45.7081 40.0114 43.5489 40.0114C41.3897 40.0114 39.6393 41.7972 39.6393 44.0001C39.6393 46.203 41.3897 47.9888 43.5489 47.9888Z" fill="url(#paint25_linear_1_11)"/>
</g>
<mask id="mask13_1_11" style="mask-type:alpha" maskUnits="userSpaceOnUse" x="59" y="40" width="9" height="8">
<path d="M63.3675 47.9889C65.5267 47.9889 67.2771 46.2032 67.2771 44.0003C67.2771 41.7974 65.5267 40.0116 63.3675 40.0116C61.2082 40.0116 59.4578 41.7974 59.4578 44.0003C59.4578 46.2032 61.2082 47.9889 63.3675 47.9889Z" fill="url(#paint26_linear_1_11)"/>
</mask>
<g mask="url(#mask13_1_11)">
<path d="M63.3681 47.9888C65.5273 47.9888 67.2777 46.203 67.2777 44.0001C67.2777 41.7972 65.5273 40.0114 63.3681 40.0114C61.2088 40.0114 59.4584 41.7972 59.4584 44.0001C59.4584 46.203 61.2088 47.9888 63.3681 47.9888Z" fill="url(#paint27_linear_1_11)"/>
</g>
<mask id="mask14_1_11" style="mask-type:alpha" maskUnits="userSpaceOnUse" x="79" y="40" width="9" height="8">
<path d="M83.1867 47.9889C85.346 47.9889 87.0964 46.2032 87.0964 44.0003C87.0964 41.7974 85.346 40.0116 83.1867 40.0116C81.0275 40.0116 79.2771 41.7974 79.2771 44.0003C79.2771 46.2032 81.0275 47.9889 83.1867 47.9889Z" fill="url(#paint28_linear_1_11)"/>
</mask>
<g mask="url(#mask14_1_11)">
<path d="M83.1862 47.9888C85.3454 47.9888 87.0958 46.203 87.0958 44.0001C87.0958 41.7972 85.3454 40.0114 83.1862 40.0114C81.0269 40.0114 79.2766 41.7972 79.2766 44.0001C79.2766 46.203 81.0269 47.9888 83.1862 47.9888Z" fill="url(#paint29_linear_1_11)"/>
</g>
<mask id="mask15_1_11" style="mask-type:alpha" maskUnits="userSpaceOnUse" x="0" y="60" width="8" height="9">
<path d="M3.90962 68.0155C6.06885 68.0155 7.81925 66.2296 7.81925 64.0268C7.81925 61.8239 6.06885 60.0381 3.90962 60.0381C1.7504 60.0381 0 61.8239 0 64.0268C0 66.2296 1.7504 68.0155 3.90962 68.0155Z" fill="url(#paint30_linear_1_11)"/>
</mask>
<g mask="url(#mask15_1_11)">
<path d="M3.90962 68.0152C6.06885 68.0152 7.81925 66.2294 7.81925 64.0265C7.81925 61.8236 6.06885 60.0379 3.90962 60.0379C1.7504 60.0379 0 61.8236 0 64.0265C0 66.2294 1.7504 68.0152 3.90962 68.0152Z" fill="url(#paint31_linear_1_11)"/>
</g>
<mask id="mask16_1_11" style="mask-type:alpha" maskUnits="userSpaceOnUse" x="19" y="60" width="9" height="9">
<path d="M23.7289 68.0155C25.8881 68.0155 27.6385 66.2296 27.6385 64.0268C27.6385 61.8239 25.8881 60.0381 23.7289 60.0381C21.5697 60.0381 19.8193 61.8239 19.8193 64.0268C19.8193 66.2296 21.5697 68.0155 23.7289 68.0155Z" fill="url(#paint32_linear_1_11)"/>
</mask>
<g mask="url(#mask16_1_11)">
<path d="M23.7292 68.0152C25.8885 68.0152 27.6389 66.2294 27.6389 64.0265C27.6389 61.8236 25.8885 60.0379 23.7292 60.0379C21.57 60.0379 19.8196 61.8236 19.8196 64.0265C19.8196 66.2294 21.57 68.0152 23.7292 68.0152Z" fill="url(#paint33_linear_1_11)"/>
</g>
<mask id="mask17_1_11" style="mask-type:alpha" maskUnits="userSpaceOnUse" x="39" y="60" width="9" height="9">
<path d="M43.5482 68.0155C45.7074 68.0155 47.4578 66.2296 47.4578 64.0268C47.4578 61.8239 45.7074 60.0381 43.5482 60.0381C41.389 60.0381 39.6385 61.8239 39.6385 64.0268C39.6385 66.2296 41.389 68.0155 43.5482 68.0155Z" fill="url(#paint34_linear_1_11)"/>
</mask>
<g mask="url(#mask17_1_11)">
<path d="M43.5489 68.0152C45.7081 68.0152 47.4585 66.2294 47.4585 64.0265C47.4585 61.8236 45.7081 60.0379 43.5489 60.0379C41.3897 60.0379 39.6393 61.8236 39.6393 64.0265C39.6393 66.2294 41.3897 68.0152 43.5489 68.0152Z" fill="url(#paint35_linear_1_11)"/>
</g>
<mask id="mask18_1_11" style="mask-type:alpha" maskUnits="userSpaceOnUse" x="59" y="60" width="9" height="9">
<path d="M63.3675 68.0155C65.5267 68.0155 67.2771 66.2296 67.2771 64.0268C67.2771 61.8239 65.5267 60.0381 63.3675 60.0381C61.2082 60.0381 59.4578 61.8239 59.4578 64.0268C59.4578 66.2296 61.2082 68.0155 63.3675 68.0155Z" fill="url(#paint36_linear_1_11)"/>
</mask>
<g mask="url(#mask18_1_11)">
<path d="M63.3681 68.0152C65.5273 68.0152 67.2777 66.2294 67.2777 64.0265C67.2777 61.8236 65.5273 60.0379 63.3681 60.0379C61.2088 60.0379 59.4584 61.8236 59.4584 64.0265C59.4584 66.2294 61.2088 68.0152 63.3681 68.0152Z" fill="url(#paint37_linear_1_11)"/>
</g>
<mask id="mask19_1_11" style="mask-type:alpha" maskUnits="userSpaceOnUse" x="79" y="60" width="9" height="9">
<path d="M83.1867 68.0155C85.346 68.0155 87.0964 66.2296 87.0964 64.0268C87.0964 61.8239 85.346 60.0381 83.1867 60.0381C81.0275 60.0381 79.2771 61.8239 79.2771 64.0268C79.2771 66.2296 81.0275 68.0155 83.1867 68.0155Z" fill="url(#paint38_linear_1_11)"/>
</mask>
<g mask="url(#mask19_1_11)">
<path d="M83.1862 68.0152C85.3454 68.0152 87.0958 66.2294 87.0958 64.0265C87.0958 61.8236 85.3454 60.0379 83.1862 60.0379C81.0269 60.0379 79.2766 61.8236 79.2766 64.0265C79.2766 66.2294 81.0269 68.0152 83.1862 68.0152Z" fill="url(#paint39_linear_1_11)"/>
</g>
<mask id="mask20_1_11" style="mask-type:alpha" maskUnits="userSpaceOnUse" x="0" y="80" width="8" height="9">
<path d="M3.90962 88.0006C6.06885 88.0006 7.81925 86.2148 7.81925 84.0119C7.81925 81.809 6.06885 80.0232 3.90962 80.0232C1.7504 80.0232 0 81.809 0 84.0119C0 86.2148 1.7504 88.0006 3.90962 88.0006Z" fill="url(#paint40_linear_1_11)"/>
</mask>
<g mask="url(#mask20_1_11)">
<path d="M3.90962 88.0002C6.06885 88.0002 7.81925 86.2144 7.81925 84.0115C7.81925 81.8087 6.06885 80.0228 3.90962 80.0228C1.7504 80.0228 0 81.8087 0 84.0115C0 86.2144 1.7504 88.0002 3.90962 88.0002Z" fill="url(#paint41_linear_1_11)"/>
</g>
<mask id="mask21_1_11" style="mask-type:alpha" maskUnits="userSpaceOnUse" x="19" y="80" width="9" height="9">
<path d="M23.7289 88.0006C25.8881 88.0006 27.6385 86.2148 27.6385 84.0119C27.6385 81.809 25.8881 80.0232 23.7289 80.0232C21.5697 80.0232 19.8193 81.809 19.8193 84.0119C19.8193 86.2148 21.5697 88.0006 23.7289 88.0006Z" fill="url(#paint42_linear_1_11)"/>
</mask>
<g mask="url(#mask21_1_11)">
<path d="M23.7292 88.0002C25.8885 88.0002 27.6389 86.2144 27.6389 84.0115C27.6389 81.8087 25.8885 80.0228 23.7292 80.0228C21.57 80.0228 19.8196 81.8087 19.8196 84.0115C19.8196 86.2144 21.57 88.0002 23.7292 88.0002Z" fill="url(#paint43_linear_1_11)"/>
</g>
<mask id="mask22_1_11" style="mask-type:alpha" maskUnits="userSpaceOnUse" x="39" y="80" width="9" height="9">
<path d="M43.5482 88.0006C45.7074 88.0006 47.4578 86.2148 47.4578 84.0119C47.4578 81.809 45.7074 80.0232 43.5482 80.0232C41.389 80.0232 39.6385 81.809 39.6385 84.0119C39.6385 86.2148 41.389 88.0006 43.5482 88.0006Z" fill="url(#paint44_linear_1_11)"/>
</mask>
<g mask="url(#mask22_1_11)">
<path d="M43.5489 88.0002C45.7081 88.0002 47.4585 86.2144 47.4585 84.0115C47.4585 81.8087 45.7081 80.0228 43.5489 80.0228C41.3897 80.0228 39.6393 81.8087 39.6393 84.0115C39.6393 86.2144 41.3897 88.0002 43.5489 88.0002Z" fill="url(#paint45_linear_1_11)"/>
</g>
<mask id="mask23_1_11" style="mask-type:alpha" maskUnits="userSpaceOnUse" x="59" y="80" width="9" height="9">
<path d="M63.3675 88.0006C65.5267 88.0006 67.2771 86.2148 67.2771 84.0119C67.2771 81.809 65.5267 80.0232 63.3675 80.0232C61.2082 80.0232 59.4578 81.809 59.4578 84.0119C59.4578 86.2148 61.2082 88.0006 63.3675 88.0006Z" fill="url(#paint46_linear_1_11)"/>
</mask>
<g mask="url(#mask23_1_11)">
<path d="M63.3681 88.0002C65.5273 88.0002 67.2777 86.2144 67.2777 84.0115C67.2777 81.8087 65.5273 80.0228 63.3681 80.0228C61.2088 80.0228 59.4584 81.8087 59.4584 84.0115C59.4584 86.2144 61.2088 88.0002 63.3681 88.0002Z" fill="url(#paint47_linear_1_11)"/>
</g>
<mask id="mask24_1_11" style="mask-type:alpha" maskUnits="userSpaceOnUse" x="79" y="80" width="9" height="9">
<path d="M83.1867 88.0006C85.346 88.0006 87.0964 86.2148 87.0964 84.0119C87.0964 81.809 85.346 80.0232 83.1867 80.0232C81.0275 80.0232 79.2771 81.809 79.2771 84.0119C79.2771 86.2148 81.0275 88.0006 83.1867 88.0006Z" fill="url(#paint48_linear_1_11)"/>
</mask>
<g mask="url(#mask24_1_11)">
<path d="M83.1862 88.0002C85.3454 88.0002 87.0958 86.2144 87.0958 84.0115C87.0958 81.8087 85.3454 80.0228 83.1862 80.0228C81.0269 80.0228 79.2766 81.8087 79.2766 84.0115C79.2766 86.2144 81.0269 88.0002 83.1862 88.0002Z" fill="url(#paint49_linear_1_11)"/>
</g>
</g>
<defs>
<linearGradient id="paint0_linear_1_11" x1="38.076" y1="92.4707" x2="-17.486" y2="-45.7764" gradientUnits="userSpaceOnUse">
<stop stop-color="#FFA434"/>
<stop offset="1" stop-color="#FFA434"/>
</linearGradient>
<linearGradient id="paint1_linear_1_11" x1="38.076" y1="92.4707" x2="-17.486" y2="-45.7764" gradientUnits="userSpaceOnUse">
<stop stop-color="#FFA434"/>
<stop offset="1" stop-color="#FFA434"/>
</linearGradient>
<linearGradient id="paint2_linear_1_11" x1="57.8953" y1="92.4707" x2="2.33333" y2="-45.7764" gradientUnits="userSpaceOnUse">
<stop stop-color="#FFA434"/>
<stop offset="1" stop-color="#FFA434"/>
</linearGradient>
<linearGradient id="paint3_linear_1_11" x1="57.8956" y1="92.4707" x2="2.33366" y2="-45.7764" gradientUnits="userSpaceOnUse">
<stop stop-color="#FFA434"/>
<stop offset="1" stop-color="#FFA434"/>
</linearGradient>
<linearGradient id="paint4_linear_1_11" x1="77.7146" y1="92.4707" x2="22.1526" y2="-45.7764" gradientUnits="userSpaceOnUse">
<stop stop-color="#FFA434"/>
<stop offset="1" stop-color="#FFA434"/>
</linearGradient>
<linearGradient id="paint5_linear_1_11" x1="77.7153" y1="92.4707" x2="22.1533" y2="-45.7764" gradientUnits="userSpaceOnUse">
<stop stop-color="#FFA434"/>
<stop offset="1" stop-color="#FFA434"/>
</linearGradient>
<linearGradient id="paint6_linear_1_11" x1="97.5338" y1="92.4707" x2="41.9719" y2="-45.7764" gradientUnits="userSpaceOnUse">
<stop stop-color="#FFA434"/>
<stop offset="1" stop-color="#FFA434"/>
</linearGradient>
<linearGradient id="paint7_linear_1_11" x1="97.5345" y1="92.4707" x2="41.9725" y2="-45.7764" gradientUnits="userSpaceOnUse">
<stop stop-color="#FFA434"/>
<stop offset="1" stop-color="#FFA434"/>
</linearGradient>
<linearGradient id="paint8_linear_1_11" x1="117.353" y1="92.4707" x2="61.7912" y2="-45.7764" gradientUnits="userSpaceOnUse">
<stop stop-color="#FFA434"/>
<stop offset="1" stop-color="#FFA434"/>
</linearGradient>
<linearGradient id="paint9_linear_1_11" x1="117.353" y1="92.4707" x2="61.7906" y2="-45.7764" gradientUnits="userSpaceOnUse">
<stop stop-color="#FFA434"/>
<stop offset="1" stop-color="#FFA434"/>
</linearGradient>
<linearGradient id="paint10_linear_1_11" x1="38.076" y1="112.496" x2="-17.4851" y2="-25.7499" gradientUnits="userSpaceOnUse">
<stop stop-color="#FFA434"/>
<stop offset="1" stop-color="#FFA434"/>
</linearGradient>
<linearGradient id="paint11_linear_1_11" x1="38.076" y1="112.496" x2="-17.4851" y2="-25.7499" gradientUnits="userSpaceOnUse">
<stop stop-color="#FFA434"/>
<stop offset="1" stop-color="#FFA434"/>
</linearGradient>
<linearGradient id="paint12_linear_1_11" x1="57.8953" y1="112.496" x2="2.33427" y2="-25.7499" gradientUnits="userSpaceOnUse">
<stop stop-color="#FFA434"/>
<stop offset="1" stop-color="#FFA434"/>
</linearGradient>
<linearGradient id="paint13_linear_1_11" x1="57.8956" y1="112.496" x2="2.3346" y2="-25.7499" gradientUnits="userSpaceOnUse">
<stop stop-color="#FFA434"/>
<stop offset="1" stop-color="#FFA434"/>
</linearGradient>
<linearGradient id="paint14_linear_1_11" x1="77.7146" y1="112.496" x2="22.1535" y2="-25.7499" gradientUnits="userSpaceOnUse">
<stop stop-color="#FFA434"/>
<stop offset="1" stop-color="#FFA434"/>
</linearGradient>
<linearGradient id="paint15_linear_1_11" x1="77.7153" y1="112.496" x2="22.1542" y2="-25.7499" gradientUnits="userSpaceOnUse">
<stop stop-color="#FFA434"/>
<stop offset="1" stop-color="#FFA434"/>
</linearGradient>
<linearGradient id="paint16_linear_1_11" x1="97.5338" y1="112.496" x2="41.9728" y2="-25.7499" gradientUnits="userSpaceOnUse">
<stop stop-color="#FFA434"/>
<stop offset="1" stop-color="#FFA434"/>
</linearGradient>
<linearGradient id="paint17_linear_1_11" x1="97.5345" y1="112.496" x2="41.9734" y2="-25.7499" gradientUnits="userSpaceOnUse">
<stop stop-color="#FFA434"/>
<stop offset="1" stop-color="#FFA434"/>
</linearGradient>
<linearGradient id="paint18_linear_1_11" x1="117.353" y1="112.496" x2="61.7921" y2="-25.7499" gradientUnits="userSpaceOnUse">
<stop stop-color="#FFA434"/>
<stop offset="1" stop-color="#FFA434"/>
</linearGradient>
<linearGradient id="paint19_linear_1_11" x1="117.353" y1="112.496" x2="61.7915" y2="-25.7499" gradientUnits="userSpaceOnUse">
<stop stop-color="#FFA434"/>
<stop offset="1" stop-color="#FFA434"/>
</linearGradient>
<linearGradient id="paint20_linear_1_11" x1="38.076" y1="132.482" x2="-17.486" y2="-5.76507" gradientUnits="userSpaceOnUse">
<stop stop-color="#FFA434"/>
<stop offset="1" stop-color="#FFA434"/>
</linearGradient>
<linearGradient id="paint21_linear_1_11" x1="38.076" y1="132.482" x2="-17.486" y2="-5.76498" gradientUnits="userSpaceOnUse">
<stop stop-color="#FFA434"/>
<stop offset="1" stop-color="#FFA434"/>
</linearGradient>
<linearGradient id="paint22_linear_1_11" x1="57.8953" y1="132.482" x2="2.33333" y2="-5.76484" gradientUnits="userSpaceOnUse">
<stop stop-color="#FFA434"/>
<stop offset="1" stop-color="#FFA434"/>
</linearGradient>
<linearGradient id="paint23_linear_1_11" x1="57.8956" y1="132.482" x2="2.33366" y2="-5.76502" gradientUnits="userSpaceOnUse">
<stop stop-color="#FFA434"/>
<stop offset="1" stop-color="#FFA434"/>
</linearGradient>
<linearGradient id="paint24_linear_1_11" x1="77.7146" y1="132.482" x2="22.1526" y2="-5.76484" gradientUnits="userSpaceOnUse">
<stop stop-color="#FFA434"/>
<stop offset="1" stop-color="#FFA434"/>
</linearGradient>
<linearGradient id="paint25_linear_1_11" x1="77.7153" y1="132.482" x2="22.1533" y2="-5.76502" gradientUnits="userSpaceOnUse">
<stop stop-color="#FFA434"/>
<stop offset="1" stop-color="#FFA434"/>
</linearGradient>
<linearGradient id="paint26_linear_1_11" x1="97.5338" y1="132.482" x2="41.9719" y2="-5.76484" gradientUnits="userSpaceOnUse">
<stop stop-color="#FFA434"/>
<stop offset="1" stop-color="#FFA434"/>
</linearGradient>
<linearGradient id="paint27_linear_1_11" x1="97.5345" y1="132.482" x2="41.9725" y2="-5.76502" gradientUnits="userSpaceOnUse">
<stop stop-color="#FFA434"/>
<stop offset="1" stop-color="#FFA434"/>
</linearGradient>
<linearGradient id="paint28_linear_1_11" x1="117.353" y1="132.482" x2="61.7912" y2="-5.76484" gradientUnits="userSpaceOnUse">
<stop stop-color="#FFA434"/>
<stop offset="1" stop-color="#FFA434"/>
</linearGradient>
<linearGradient id="paint29_linear_1_11" x1="117.353" y1="132.482" x2="61.7906" y2="-5.76502" gradientUnits="userSpaceOnUse">
<stop stop-color="#FFA434"/>
<stop offset="1" stop-color="#FFA434"/>
</linearGradient>
<linearGradient id="paint30_linear_1_11" x1="38.076" y1="152.509" x2="-17.486" y2="14.2617" gradientUnits="userSpaceOnUse">
<stop stop-color="#FFA434"/>
<stop offset="1" stop-color="#FFA434"/>
</linearGradient>
<linearGradient id="paint31_linear_1_11" x1="38.076" y1="152.509" x2="-17.486" y2="14.2615" gradientUnits="userSpaceOnUse">
<stop stop-color="#FFA434"/>
<stop offset="1" stop-color="#FFA434"/>
</linearGradient>
<linearGradient id="paint32_linear_1_11" x1="57.8953" y1="152.509" x2="2.33333" y2="14.2617" gradientUnits="userSpaceOnUse">
<stop stop-color="#FFA434"/>
<stop offset="1" stop-color="#FFA434"/>
</linearGradient>
<linearGradient id="paint33_linear_1_11" x1="57.8956" y1="152.509" x2="2.33366" y2="14.2614" gradientUnits="userSpaceOnUse">
<stop stop-color="#FFA434"/>
<stop offset="1" stop-color="#FFA434"/>
</linearGradient>
<linearGradient id="paint34_linear_1_11" x1="77.7146" y1="152.509" x2="22.1526" y2="14.2617" gradientUnits="userSpaceOnUse">
<stop stop-color="#FFA434"/>
<stop offset="1" stop-color="#FFA434"/>
</linearGradient>
<linearGradient id="paint35_linear_1_11" x1="77.7153" y1="152.509" x2="22.1533" y2="14.2614" gradientUnits="userSpaceOnUse">
<stop stop-color="#FFA434"/>
<stop offset="1" stop-color="#FFA434"/>
</linearGradient>
<linearGradient id="paint36_linear_1_11" x1="97.5338" y1="152.509" x2="41.9719" y2="14.2617" gradientUnits="userSpaceOnUse">
<stop stop-color="#FFA434"/>
<stop offset="1" stop-color="#FFA434"/>
</linearGradient>
<linearGradient id="paint37_linear_1_11" x1="97.5345" y1="152.509" x2="41.9725" y2="14.2614" gradientUnits="userSpaceOnUse">
<stop stop-color="#FFA434"/>
<stop offset="1" stop-color="#FFA434"/>
</linearGradient>
<linearGradient id="paint38_linear_1_11" x1="117.353" y1="152.509" x2="61.7912" y2="14.2617" gradientUnits="userSpaceOnUse">
<stop stop-color="#FFA434"/>
<stop offset="1" stop-color="#FFA434"/>
</linearGradient>
<linearGradient id="paint39_linear_1_11" x1="117.353" y1="152.509" x2="61.7906" y2="14.2614" gradientUnits="userSpaceOnUse">
<stop stop-color="#FFA434"/>
<stop offset="1" stop-color="#FFA434"/>
</linearGradient>
<linearGradient id="paint40_linear_1_11" x1="38.076" y1="172.494" x2="-17.486" y2="34.2468" gradientUnits="userSpaceOnUse">
<stop stop-color="#FFA434"/>
<stop offset="1" stop-color="#FFA434"/>
</linearGradient>
<linearGradient id="paint41_linear_1_11" x1="38.076" y1="172.494" x2="-17.486" y2="34.2464" gradientUnits="userSpaceOnUse">
<stop stop-color="#FFA434"/>
<stop offset="1" stop-color="#FFA434"/>
</linearGradient>
<linearGradient id="paint42_linear_1_11" x1="57.8953" y1="172.494" x2="2.33333" y2="34.2468" gradientUnits="userSpaceOnUse">
<stop stop-color="#FFA434"/>
<stop offset="1" stop-color="#FFA434"/>
</linearGradient>
<linearGradient id="paint43_linear_1_11" x1="57.8956" y1="172.494" x2="2.33366" y2="34.2464" gradientUnits="userSpaceOnUse">
<stop stop-color="#FFA434"/>
<stop offset="1" stop-color="#FFA434"/>
</linearGradient>
<linearGradient id="paint44_linear_1_11" x1="77.7146" y1="172.494" x2="22.1526" y2="34.2468" gradientUnits="userSpaceOnUse">
<stop stop-color="#FFA434"/>
<stop offset="1" stop-color="#FFA434"/>
</linearGradient>
<linearGradient id="paint45_linear_1_11" x1="77.7153" y1="172.494" x2="22.1533" y2="34.2464" gradientUnits="userSpaceOnUse">
<stop stop-color="#FFA434"/>
<stop offset="1" stop-color="#FFA434"/>
</linearGradient>
<linearGradient id="paint46_linear_1_11" x1="97.5338" y1="172.494" x2="41.9719" y2="34.2468" gradientUnits="userSpaceOnUse">
<stop stop-color="#FFA434"/>
<stop offset="1" stop-color="#FFA434"/>
</linearGradient>
<linearGradient id="paint47_linear_1_11" x1="97.5345" y1="172.494" x2="41.9725" y2="34.2464" gradientUnits="userSpaceOnUse">
<stop stop-color="#FFA434"/>
<stop offset="1" stop-color="#FFA434"/>
</linearGradient>
<linearGradient id="paint48_linear_1_11" x1="117.353" y1="172.494" x2="61.7912" y2="34.2468" gradientUnits="userSpaceOnUse">
<stop stop-color="#FFA434"/>
<stop offset="1" stop-color="#FFA434"/>
</linearGradient>
<linearGradient id="paint49_linear_1_11" x1="117.353" y1="172.494" x2="61.7906" y2="34.2464" gradientUnits="userSpaceOnUse">
<stop stop-color="#FFA434"/>
<stop offset="1" stop-color="#FFA434"/>
</linearGradient>
</defs>
</svg>
